PathFileType	4	(X/Y/Z)	C:/Users/beibeiliu/ov580/test_trc/capture2\sequence.37_training_dense_left.trc
DataRate	CameraRate	NumFrames	NumMarkers	Units	OrigDataRate	OrigDataStartFrame	OrigNumFrames
120	120	8	19	mm	120	1	370
Frame#	Time	ThumbCMC			ThumbMCP			ThumbIP			ThumbTip			IndexMCP			IndexPIP			IndexTip			MiddleMCP			MiddlePIP			MiddleTip			RingMCP			RingPIP			RingTip			PinkyMCP			PinkyPIP			PinkyTip			BackHand1			BackHand2			BackHand3	
		X0	Y0	Z0	X1	Y1	Z1	X2	Y2	Z2	X3	Y3	Z3	X4	Y4	Z4	X5	Y5	Z5	X6	Y6	Z6	X7	Y7	Z7	X8	Y8	Z8	X9	Y9	Z9	X10	Y10	Z10	X11	Y11	Z11	X12	Y12	Z12	X13	Y13	Z13	X14	Y14	Z14	X15	Y15	Z15	X16	Y16	Z16	X17	Y17	Z17	X18	Y18	Z18	
0	0	-105.498	31.9271	11.5856	-87.7913	18.6032	-3.24535	-65.7225	14.8312	-20.062	-48.7577	10.2518	-37.51	-107.162	39.0936	-64.8275	-98.7916	33.9975	-88.6657	-94.35	27.7967	-118.734	-127.497	40.4198	-76.6375	-126.456	35.1625	-103.54	-126.187	25.7987	-131.713	-146.916	37.6125	-77.3896	-148.258	33.8206	-98.9116	-148.324	26.0377	-125.314	-173.443	31.2519	-67.5809	-176.275	26.4018	-85.5975	-177.689	26.3305	-111.585	-155.75	51.9974	-29.6976	-162.755	56.8716	4.04682	-128.805	54.7661	-8.65731	
1	0.00833333	-107.399	31.1084	9.2372	-87.2899	19.3091	-3.99448	-71.0687	14.0652	-21.9847	-50.4518	9.14469	-37.5485	-108.069	39.5522	-66.1303	-100.354	34.6599	-93.0085	-96.9106	27.42	-119.728	-127.197	40.6179	-78.8971	-126.397	36.0514	-100.935	-126.981	26.0449	-131.756	-152.207	38.6152	-75.9902	-147.834	33.3557	-99.1482	-147.494	25.1403	-130.23	-171.815	31.2934	-63.401	-177.348	26.7301	-90.8244	-181.181	27.818	-110.749	-159.465	51.343	-26.2857	-161.901	57.5936	1.5346	-128.428	53.5768	-10.0013	
2	0.0166667	-108.196	30.3209	11.4197	-90.0579	18.8053	-1.84629	-66.9423	13.7048	-23.4548	-54.2635	9.5919	-34.6978	-102.664	38.6301	-68.2362	-101.186	34.3466	-90.4575	-94.0581	28.5164	-114.856	-130.019	41.392	-75.4678	-126.706	35.6036	-101.737	-124.164	26.7167	-129.456	-147.479	38.5205	-72.8254	-147.677	32.3102	-103.18	-148.515	24.6362	-128.93	-173.232	32.5774	-64.5236	-177.676	26.7303	-88.2949	-179.496	25.3457	-110.699	-159.981	51.9406	-26.5989	-161.388	55.7116	1.9655	-130.588	53.4066	-7.11507	
3	0.025	-103.592	30.4697	7.82167	-89.3454	18.5495	-4.89239	-68.7387	14.0566	-22.0215	-53.3548	9.9942	-32.8164	-105.076	38.4851	-67.8192	-96.089	34.1915	-92.7979	-99.3394	28.525	-114.555	-127.276	40.9214	-73.5741	-126.262	35.0058	-103.61	-126.343	25.968	-130.197	-146.227	38.4685	-75.1777	-148.222	32.6264	-101.798	-146.415	26.0212	-123.745	-168.307	31.512	-62.5514	-172.702	28.1036	-87.5449	-179.279	27.6175	-110.575	-157.118	50.3998	-28.7927	-164.222	56.1073	0.356484	-127.867	53.2923	-9.53996	
4	0.0333333	-108.444	29.4055	11.3082	-87.2074	18.2429	-5.32117	-66.2105	14.0759	-18.8164	-49.7126	10.1758	-32.38	-102.281	38.3331	-63.2625	-97.8191	34.6725	-87.438	-93.9736	28.9831	-112.875	-123.715	41.3109	-78.1785	-122.623	33.5233	-104.735	-123.184	26.1639	-128.046	-150.433	37.1548	-74.3548	-146.057	32.2615	-102.468	-147.116	23.5015	-127.632	-173.038	30.8685	-64.9705	-171.117	26.7631	-85.6506	-178.811	26.4173	-110.535	-157.314	51.4898	-27.9091	-157.908	55.7225	0.502075	-128.247	51.6604	-8.98718	
5	0.0416667	-106.915	29.4167	7.77262	-88.3559	18.6662	-4.48531	-67.3936	14.4928	-23.0384	-48.9545	10.3742	-33.086	-101.55	37.5238	-61.6897	-99.7776	32.7786	-91.458	-94.4272	27.8514	-112.575	-127.753	39.9115	-77.2751	-123.405	34.2721	-102.057	-125.891	24.0631	-129.124	-150.728	36.5577	-74.3267	-149.009	31.2021	-102.244	-148.821	24.0131	-124.654	-170.537	31.1687	-64.233	-171.511	26.2161	-83.6126	-179.036	23.147	-109.422	-154.583	50.8615	-23.7419	-160.677	54.9072	2.1984	-125.227	51.3615	-6.84255	
6	0.05	-104.835	30.2102	8.93649	-85.9235	18.9288	-4.03908	-69.9334	13.2835	-18.6229	-51.9932	10.729	-32.9968	-104.845	37.1258	-67.2752	-97.0403	32.378	-86.5823	-96.6116	26.9584	-112.872	-128.741	39.4724	-77.7326	-123.503	34.0776	-99.5952	-123.379	23.5705	-130.705	-146.513	36.035	-71.3483	-148.253	31.0003	-98.9611	-144.503	23.5935	-127.821	-173.101	29.9273	-64.3814	-174.276	24.4678	-89.0109	-179.06	22.7551	-110.937	-154.193	48.3775	-23.0408	-162.933	55.041	3.50672	-129.025	53.3726	-6.33103	
7	0.0583333	-106.312	31.0562	13.6942	-87.6875	18.8372	-1.03264	-65.2483	15.4747	-20.5235	-49.1002	11.6739	-30.9471	-104.195	37.6355	-65.6767	-95.911	31.176	-90.9652	-97.6216	26.8222	-113.097	-127.186	38.7409	-77.0741	-124.648	32.8578	-100.288	-119.749	21.3111	-132.104	-146.421	35.9157	-72.38	-150.751	30.1667	-99.5623	-147.726	22.831	-124.264	-172.698	29.9293	-66.5871	-173.287	24.1567	-85.0346	-178.173	21.1696	-113.21	-159.899	48.6073	-24.0139	-162.914	54.3616	1.73112	-126.345	53.9355	-6.72151	
